# xmcd CD database file
#
# Track frame offsets:
#	150
#	25392
#	44656
#	74029
#	102485
#	125433
#	156588
#	178859
#	198128
#	220446
#	242048
#
# Disc length: 3507 seconds
#
# Revision: 0
# Processed by: cddbd v1.5.2PL0 Copyright (c) Steve Scherf et al.
# Submitted via: CDex 1.70beta2
#
DISCID=af0db10b
DTITLE=Will Bernard - Party Hats
DYEAR=2007
DGENRE=Jazz
TTITLE0=Share the Sea
TTITLE1=White Elephant Sale
TTITLE2=Ripple Sole
TTITLE3=Leo's Cat
TTITLE4=Party Hats
TTITLE5=Afro Sheen
TTITLE6=Chin Up
TTITLE7=Newbie
TTITLE8=Folding Green
TTITLE9=Battle Trap
TTITLE10=Penske
EXTD=YEAR: 2007
EXTT0=
EXTT1=
EXTT2=
EXTT3=
EXTT4=
EXTT5=
EXTT6=
EXTT7=
EXTT8=
EXTT9=
EXTT10=
PLAYORDER=
